<svg width="7" height="9" viewBox="0 0 7 9" fill="none" xmlns="http://www.w3.org/2000/svg">
<path d="M5.75 3.16667H5.375V2.40476C5.375 1.35333 4.535 0.5 3.5 0.5C2.465 0.5 1.625 1.35333 1.625 2.40476V3.16667H1.25C0.8375 3.16667 0.5 3.50952 0.5 3.92857V7.7381C0.5 8.15714 0.8375 8.5 1.25 8.5H5.75C6.1625 8.5 6.5 8.15714 6.5 7.7381V3.92857C6.5 3.50952 6.1625 3.16667 5.75 3.16667ZM2.375 2.40476C2.375 1.77238 2.8775 1.2619 3.5 1.2619C4.1225 1.2619 4.625 1.77238 4.625 2.40476V3.16667H2.375V2.40476ZM5.75 7.7381H1.25V3.92857H5.75V7.7381Z" fill="black"/>
</svg>
